<?xml version="1.0" encoding="iso-8859-1"?>
<!-- Generator: Adobe Illustrator 16.0.0, SVG Export Plug-In . SVG Version: 6.00 Build 0)  -->
<!DOCTYPE svg PUBLIC "-//W3C//DTD SVG 1.1//EN" "http://www.w3.org/Graphics/SVG/1.1/DTD/svg11.dtd">
<svg version="1.1" id="Capa_1" xmlns="http://www.w3.org/2000/svg" xmlns:xlink="http://www.w3.org/1999/xlink" x="0px" y="0px"
	 width="204.511px" height="204.511px" viewBox="0 0 204.511 204.511" style="enable-background:new 0 0 204.511 204.511;"
	 xml:space="preserve">
<g>
	<g>
		<path d="M43.019,55.082c8.692,0,15.744-10.083,15.744-18.782c0-8.705-7.051-15.75-15.744-15.75c-8.698,0-15.75,7.051-15.75,15.75
			C27.269,44.993,34.32,55.082,43.019,55.082z"/>
		<path d="M161.486,55.082c8.695,0,15.746-10.083,15.746-18.782c0-8.705-7.051-15.75-15.746-15.75s-15.747,7.051-15.747,15.75
			C145.739,44.993,152.791,55.082,161.486,55.082z"/>
		<path d="M53.888,123.72c-2.338-2.924-3.397-6.589-2.986-10.303l6.146-55.348c-4.408-0.95-9.371-1.708-14.029-1.708
			c-11.104,0-24.031,4.308-26.576,5.194c-0.104,0.03-0.198,0.067-0.298,0.106c-0.055,0.024-0.137,0.049-0.155,0.055
			c-0.125,0.048-0.207,0.143-0.326,0.201c-0.597,0.262-1.166,0.566-1.65,1.001c-0.231,0.201-0.381,0.451-0.576,0.679
			c-0.311,0.369-0.624,0.719-0.84,1.16c-0.201,0.387-0.274,0.813-0.387,1.23c-0.082,0.304-0.25,0.566-0.286,0.898L6.94,111.724
			c-0.38,3.416,2.083,6.497,5.501,6.881c0.234,0.024,0.466,0.036,0.697,0.036c3.13,0,5.831-2.351,6.181-5.541l4.536-40.846
			c0.533-0.155,1.111-0.332,1.729-0.506v42.509l-4.957,61.641c-0.332,4.109,2.737,7.715,6.85,8.043
			c0.207,0.019,0.408,0.025,0.606,0.025c3.86,0,7.134-2.96,7.444-6.869l4.484-55.716c0.922,0.402,1.939,0.646,3.011,0.646
			c1.078,0,2.095-0.231,3.017-0.646l4.484,55.716c0.311,3.909,3.584,6.869,7.438,6.869c0.201,0,0.405-0.007,0.606-0.025
			c4.113-0.328,7.182-3.934,6.851-8.043l-3.809-47.344C58.607,127.848,55.876,126.216,53.888,123.72z"/>
		<path d="M192.59,66.88c-0.037-0.313-0.201-0.569-0.274-0.861c-0.121-0.436-0.201-0.88-0.414-1.285
			c-0.183-0.362-0.444-0.648-0.694-0.953c-0.249-0.32-0.462-0.643-0.767-0.904c-0.359-0.308-0.768-0.493-1.176-0.712
			c-0.262-0.137-0.463-0.354-0.742-0.454c-0.604-0.213-14.925-5.349-27.036-5.349c-4.671,0-9.621,0.773-14.029,1.72l6.149,55.336
			c0.408,3.714-0.651,7.386-2.989,10.303c-1.973,2.472-4.683,4.109-7.715,4.822l-3.812,47.35c-0.329,4.104,2.739,7.709,6.85,8.043
			c0.207,0.019,0.408,0.024,0.609,0.024c3.86,0,7.13-2.965,7.44-6.874l4.488-55.71c0.919,0.408,1.937,0.651,3.008,0.651
			c1.078,0,2.095-0.243,3.021-0.651l4.481,55.71c0.311,3.909,3.586,6.874,7.44,6.874c0.201,0,0.402-0.006,0.604-0.024
			c4.116-0.334,7.185-3.939,6.85-8.043l-4.956-61.646V71.742c0.621,0.174,1.199,0.35,1.729,0.505l4.542,40.846
			c0.354,3.185,3.045,5.547,6.181,5.547c0.231,0,0.463-0.024,0.694-0.048c3.416-0.378,5.882-3.459,5.498-6.875L192.59,66.88z"/>
		<path d="M102.254,43.218c10.872,0,19.701-12.623,19.701-23.511C121.955,8.823,113.126,0,102.254,0
			C91.367,0,82.537,8.823,82.537,19.707C82.537,30.595,91.367,43.218,102.254,43.218z"/>
		<path d="M140.527,122.702c4.274-0.469,7.355-4.329,6.881-8.604l-6.235-56.118c-0.043-0.387-0.25-0.703-0.341-1.077
			c-0.146-0.548-0.256-1.1-0.518-1.604c-0.231-0.448-0.561-0.811-0.877-1.197c-0.305-0.393-0.572-0.798-0.95-1.126
			c-0.444-0.387-0.956-0.624-1.474-0.898c-0.322-0.17-0.572-0.438-0.932-0.569c-0.7-0.256-16.392-5.879-30.811-6.622l-1.982,3.961
			h-0.049l5.249,40.892l-6.235,10.89l-6.235-10.89l5.249-40.886h-0.061l-1.952-3.909c-13.143,0.661-27.304,5.337-30.26,6.366
			c-0.131,0.037-0.25,0.085-0.375,0.131c-0.073,0.031-0.167,0.061-0.198,0.073c-0.159,0.058-0.262,0.183-0.408,0.25
			c-0.752,0.332-1.458,0.706-2.07,1.254c-0.286,0.256-0.472,0.566-0.715,0.855c-0.387,0.459-0.78,0.901-1.054,1.446
			c-0.25,0.484-0.344,1.008-0.487,1.538c-0.106,0.39-0.311,0.712-0.356,1.123l-6.235,56.118c-0.472,4.274,2.606,8.135,6.884,8.604
			c0.295,0.043,0.588,0.055,0.874,0.055c3.915,0,7.295-2.953,7.739-6.941l5.678-51.106c0.661-0.201,1.391-0.411,2.165-0.636v53.203
			l-6.205,77.132c-0.411,5.146,3.425,9.663,8.574,10.071c0.256,0.019,0.512,0.031,0.761,0.031c4.826,0,8.924-3.709,9.316-8.604
			l5.605-69.715c1.16,0.512,2.433,0.804,3.772,0.804c1.339,0,2.618-0.292,3.772-0.804l5.605,69.715
			c0.393,4.896,4.49,8.604,9.313,8.604c0.249,0,0.505-0.013,0.761-0.031c5.151-0.408,8.987-4.926,8.573-10.071l-6.211-77.132V64.073
			c0.773,0.219,1.504,0.429,2.168,0.636l5.675,51.106c0.445,3.994,3.818,6.941,7.739,6.941
			C139.937,122.757,140.229,122.733,140.527,122.702z"/>
	</g>
</g>
<g>
</g>
<g>
</g>
<g>
</g>
<g>
</g>
<g>
</g>
<g>
</g>
<g>
</g>
<g>
</g>
<g>
</g>
<g>
</g>
<g>
</g>
<g>
</g>
<g>
</g>
<g>
</g>
<g>
</g>
</svg>
